<svg xmlns="http://www.w3.org/2000/svg" viewBox="0 0 16 16" shape-rendering="crispEdges">
  
  <rect x="2" y="4" width="1" height="3" fill="#0a5060"></rect>
  <rect x="13" y="4" width="1" height="3" fill="#0a5060"></rect>
  
  <rect x="5" y="1" width="6" height="1" fill="#0d7377"></rect>
  <rect x="4" y="2" width="8" height="5" fill="#0d7377"></rect>
  <rect x="3" y="3" width="10" height="3" fill="#0d7377"></rect>
  <rect x="4" y="6" width="8" height="1" fill="#0d7377"></rect>
  
  <rect x="4" y="2" width="8" height="4" fill="#14a085"></rect>
  
  <rect x="4" y="3" width="3" height="2" fill="#f0fdf4"></rect>
  <rect x="9" y="3" width="3" height="2" fill="#f0fdf4"></rect>
  
  <rect x="5" y="3" width="1" height="1" fill="#00bfa0"></rect>
  <rect x="10" y="3" width="1" height="1" fill="#00bfa0"></rect>
  
  <rect x="4" y="4" width="3" height="1" fill="#00d4a8"></rect>
  <rect x="9" y="4" width="3" height="1" fill="#00d4a8"></rect>
  
  <rect x="5" y="5" width="6" height="1" fill="#0a5060"></rect>
  <rect x="6" y="5" width="1" height="1" fill="#14a085"></rect>
  <rect x="8" y="5" width="1" height="1" fill="#14a085"></rect>
  <rect x="10" y="5" width="1" height="1" fill="#14a085"></rect>
  
  <rect x="7" y="7" width="2" height="1" fill="#0a5060"></rect>
  
  <rect x="3" y="8" width="10" height="8" fill="#0d7377"></rect>
  
  <rect x="3" y="8" width="3" height="3" fill="#0a5060"></rect>
  <rect x="10" y="8" width="3" height="3" fill="#0a5060"></rect>
  
  <rect x="5" y="9" width="6" height="5" fill="#0a5060"></rect>
  <rect x="6" y="10" width="4" height="3" fill="#001a1a"></rect>
  
  <rect x="6" y="10" width="1" height="1" fill="#00ffcc"></rect>
  <rect x="8" y="10" width="1" height="1" fill="#00ffcc"></rect>
  <rect x="7" y="11" width="1" height="1" fill="#00bfa0"></rect>
  <rect x="9" y="11" width="1" height="1" fill="#00bfa0"></rect>
  <rect x="6" y="12" width="2" height="1" fill="#00d4a8"></rect>
  <rect x="9" y="12" width="1" height="1" fill="#00ffcc"></rect>
</svg>