<svg xmlns="http://www.w3.org/2000/svg" viewBox="0 0 16 16" shape-rendering="crispEdges">
  
  <rect x="4" y="1" width="8" height="1" fill="#1c1008"></rect>
  <rect x="3" y="2" width="10" height="2" fill="#1c1008"></rect>
  <rect x="3" y="4" width="1" height="3" fill="#1c1008"></rect>
  <rect x="12" y="4" width="1" height="3" fill="#1c1008"></rect>
  
  <rect x="4" y="4" width="8" height="4" fill="#c08040"></rect>
  
  <rect x="4" y="4" width="4" height="1" fill="#555555"></rect>
  <rect x="8" y="4" width="4" height="1" fill="#555555"></rect>
  <rect x="7" y="4" width="2" height="1" fill="#888888"></rect>
  
  <rect x="5" y="5" width="2" height="1" fill="#111122"></rect>
  <rect x="9" y="5" width="2" height="1" fill="#111122"></rect>
  
  <rect x="7" y="6" width="2" height="1" fill="#a06030"></rect>
  
  <rect x="6" y="7" width="4" height="1" fill="#7a3020"></rect>
  
  <rect x="7" y="8" width="2" height="1" fill="#c08040"></rect>
  
  <rect x="4" y="9" width="8" height="1" fill="#f0f0ee"></rect>
  <rect x="3" y="10" width="10" height="6" fill="#f0f0ee"></rect>
  
  <rect x="5" y="9" width="2" height="3" fill="#f0f0ee"></rect>
  <rect x="9" y="9" width="2" height="3" fill="#f0f0ee"></rect>
  
  <rect x="7" y="9" width="2" height="7" fill="#1e3560"></rect>
  
  <rect x="5" y="11" width="1" height="2" fill="#888888"></rect>
  <rect x="10" y="11" width="1" height="2" fill="#888888"></rect>
  <rect x="6" y="12" width="4" height="1" fill="#888888"></rect>
</svg>