<svg xmlns="http://www.w3.org/2000/svg" viewBox="0 0 16 16" shape-rendering="crispEdges">
  
  <rect x="7" y="0" width="2" height="1" fill="#e05a38"></rect>
  <rect x="6" y="1" width="4" height="1" fill="#d97050"></rect>
  
  <rect x="3" y="2" width="10" height="5" fill="#d97050"></rect>
  
  <rect x="4" y="2" width="8" height="4" fill="#f2c4a8"></rect>
  
  <rect x="4" y="3" width="3" height="2" fill="#7c3aed"></rect>
  <rect x="9" y="3" width="3" height="2" fill="#7c3aed"></rect>
  
  <rect x="4" y="3" width="1" height="1" fill="#c4b5fd"></rect>
  <rect x="9" y="3" width="1" height="1" fill="#c4b5fd"></rect>
  
  <rect x="4" y="2" width="3" height="1" fill="#c06040"></rect>
  <rect x="9" y="2" width="3" height="1" fill="#c06040"></rect>
  
  <rect x="6" y="5" width="4" height="1" fill="#c06040"></rect>
  
  <rect x="3" y="6" width="10" height="1" fill="#c06040"></rect>
  
  <rect x="7" y="7" width="2" height="1" fill="#b05040"></rect>
  
  <rect x="3" y="8" width="10" height="8" fill="#d97050"></rect>
  
  <rect x="3" y="8" width="2" height="4" fill="#b05040"></rect>
  <rect x="11" y="8" width="2" height="4" fill="#b05040"></rect>
  
  <rect x="5" y="9" width="6" height="4" fill="#c06040"></rect>
  
  <rect x="7" y="9" width="2" height="6" fill="#b05040"></rect>
  
  <rect x="5" y="10" width="1" height="1" fill="#fcd34d"></rect>
  <rect x="10" y="10" width="1" height="1" fill="#fcd34d"></rect>
  <rect x="5" y="12" width="1" height="1" fill="#7c3aed"></rect>
  <rect x="10" y="12" width="1" height="1" fill="#7c3aed"></rect>
</svg>